<?xml version="1.0" standalone="no"?>
<!DOCTYPE svg PUBLIC "-//W3C//DTD SVG 20010904//EN"
 "http://www.w3.org/TR/2001/REC-SVG-20010904/DTD/svg10.dtd">
<svg version="1.0" xmlns="http://www.w3.org/2000/svg"
 width="600.000000pt" height="200.000000pt" viewBox="0 0 600.000000 200.000000"
 preserveAspectRatio="xMidYMid meet">
<metadata>
Created by potrace 1.16, written by Peter Selinger 2001-2019
</metadata>
<g transform="translate(0.000000,200.000000) scale(0.100000,-0.100000)"
fill="#000000" stroke="none">
<path d="M0 1000 l0 -1000 3000 0 3000 0 0 1000 0 1000 -3000 0 -3000 0 0
-1000z m2238 881 c146 -75 145 -265 -2 -335 -48 -22 -159 -21 -212 3 -61 28
-97 80 -102 150 -6 89 37 157 119 190 44 18 156 13 197 -8z m-1386 -470 c13
-18 30 -20 261 -23 240 -3 246 -2 249 17 4 30 77 35 85 6 5 -20 12 -21 218
-21 232 0 240 -2 233 -57 -2 -20 -9 -29 -25 -31 -22 -3 -23 -7 -25 -160 l-3
-157 -38 -3 c-32 -3 -44 3 -84 37 -25 23 -50 41 -54 41 -5 0 -9 -13 -9 -30 0
-20 -8 -35 -25 -46 -23 -15 -27 -15 -50 0 -31 21 -33 58 -3 86 l22 20 -33 11
c-28 10 -61 58 -61 89 0 8 172 90 189 90 5 0 13 5 16 10 4 6 -40 10 -124 10
l-130 0 -3 -157 -3 -158 -45 0 -45 0 -3 144 c-1 86 -7 150 -14 158 -8 10 -47
13 -154 13 l-144 0 0 -50 c0 -27 4 -50 9 -50 5 0 35 16 66 35 80 48 90 50 126
24 24 -17 29 -26 24 -43 -13 -41 -17 -142 -7 -179 10 -36 9 -39 -14 -48 -14
-5 -36 -9 -49 -9 -20 0 -25 7 -34 50 -6 28 -11 67 -11 85 0 19 -4 35 -10 35
-5 0 -34 -20 -65 -46 -59 -48 -74 -50 -113 -13 -20 18 -22 30 -22 114 l0 95
-40 0 -39 0 -3 -157 -3 -158 -47 -3 -48 -3 0 149 c0 115 -3 152 -14 161 -9 8
-60 11 -157 9 l-144 -3 4 -45 c1 -25 4 -46 5 -48 2 -1 39 17 82 40 l80 42 32
-24 c28 -21 32 -28 25 -50 -4 -14 -8 -69 -7 -122 l1 -96 -39 -10 c-34 -9 -40
-8 -50 11 -6 12 -13 52 -16 89 -3 37 -9 68 -15 68 -5 0 -35 -21 -65 -47 l-55
-47 -36 21 -36 21 -3 100 c-3 95 -4 101 -25 104 -17 2 -23 11 -25 40 -4 50 0
51 252 46 183 -3 206 -1 206 13 0 22 9 29 41 29 16 0 34 -8 41 -19z m1478
-641 l0 -620 -195 0 -195 0 0 620 0 620 195 0 195 0 0 -620z m1494 124 c13 -5
16 -27 16 -135 l0 -129 40 26 c71 47 178 32 229 -31 32 -41 42 -117 39 -300
l-3 -170 -80 0 -80 0 -3 185 c-2 174 -3 186 -23 203 -27 22 -71 22 -98 0 -20
-17 -21 -29 -23 -203 l-3 -185 -77 -3 -78 -3 0 369 c0 203 3 372 7 375 8 9
116 9 137 1z m1841 -16 c3 -13 4 -180 3 -373 l-3 -350 -80 0 -80 0 -3 360 c-1
198 0 366 3 372 3 9 28 13 79 13 70 0 76 -2 81 -22z m-2868 -21 c104 -22 167
-81 188 -174 l7 -33 -86 0 c-68 0 -86 3 -86 14 0 8 -11 27 -24 42 -20 24 -31
28 -74 28 -60 0 -92 -23 -92 -65 0 -38 31 -59 146 -104 155 -60 228 -150 209
-254 -21 -110 -105 -164 -255 -164 -156 0 -275 78 -288 188 l-5 45 82 0 c69 0
82 -3 87 -17 14 -48 32 -69 70 -82 79 -28 155 12 140 74 -10 38 -37 57 -143
97 -151 57 -213 120 -213 213 0 102 78 176 210 198 45 8 64 7 127 -6z m661
-199 c56 -26 95 -84 96 -141 1 -28 -3 -42 -11 -41 -7 1 -40 2 -73 3 -43 1 -60
5 -60 15 0 27 -41 66 -69 66 -38 0 -58 -18 -70 -65 -21 -77 -7 -186 27 -212
36 -29 112 -3 112 38 0 17 7 19 76 19 l77 0 -6 -40 c-22 -164 -303 -213 -402
-71 -54 78 -69 190 -40 289 44 146 197 208 343 140z m1182 -2 c117 -57 162
-239 95 -383 -44 -97 -152 -146 -272 -124 -74 14 -125 49 -160 108 -26 45 -28
55 -28 158 0 103 2 113 29 158 64 108 211 144 336 83z m593 7 c88 -35 143
-148 135 -277 -6 -84 -30 -137 -87 -189 -45 -40 -87 -53 -177 -50 -141 3 -234
109 -234 268 0 104 51 204 122 241 67 35 163 37 241 7z m-4133 -348 l0 -185
-42 0 c-70 0 -69 -2 -66 174 l3 158 45 19 c25 10 48 18 53 18 4 1 7 -82 7
-184z"/>
<path d="M4463 536 c-27 -23 -28 -28 -28 -119 0 -87 2 -98 24 -121 42 -45 110
-32 130 25 14 40 14 147 1 186 -19 54 -81 68 -127 29z"/>
<path d="M5073 545 c-50 -35 -55 -204 -8 -251 31 -31 78 -32 109 -1 45 46 46
198 0 244 -27 26 -69 30 -101 8z"/>
</g>
</svg>
